<?xml version="1.0" encoding="utf-8"?>
<!-- Generator: Adobe Illustrator 22.0.1, SVG Export Plug-In . SVG Version: 6.00 Build 0)  -->
<svg version="1.1" id="Layer_1" xmlns="http://www.w3.org/2000/svg" xmlns:xlink="http://www.w3.org/1999/xlink" x="0px" y="0px"
	 viewBox="0 0 641.8 269.1" style="enable-background:new 0 0 641.8 269.1;" xml:space="preserve">
<style type="text/css">
	.st0{fill:#A7A9AC;}
	.st1{fill:#C9252C;}
	.st2{fill:#ffffff;}
</style>
<rect class="st2" x="11.5" y="103" width="71" height="166.1"/>
<path class="st2" d="M63,5.6c13.9,0.8,24.5,12.8,23.6,26.7C85.8,45,75.7,55.1,63,55.9h-0.1c12-1.5,20.5-12.5,19-24.5
	s-12.5-20.5-24.5-19c-11,1.4-19.2,10.7-19.2,21.8c0,0.5,0,1,0,1.5c-0.3-1.6-0.5-3.3-0.5-4.9C37.7,16.9,49,5.6,63,5.6L63,5.6z"/>
<path class="st2" d="M36.2,89.5c-24.5-5-40.3-28.8-35.3-53.3S29.7-4.1,54.2,0.9h0.1C32.6-0.7,13.7,15.6,12.1,37.2s14.7,40.6,36.3,42.2
	C68.2,80.9,86,67.4,89.9,48c0.2-0.9,0.3-1.8,0.4-2.7c0,24.9-20.3,45.1-45.2,45C42.2,90.4,39.2,90.1,36.2,89.5z"/>
<path class="st2" d="M57.6,19.4c-9.3,0-16.9,7.6-16.8,16.9c0,9.3,7.6,16.9,16.9,16.8c9.3,0,16.8-7.6,16.8-16.9
	C74.5,26.9,67,19.4,57.6,19.4C57.6,19.4,57.6,19.4,57.6,19.4z M57.6,43.3c-3.9,0-7.1-3.2-7.1-7.1s3.2-7.1,7.1-7.1
	c3.9,0,7.1,3.2,7.1,7.1S61.5,43.3,57.6,43.3L57.6,43.3z"/>
<g>
	<g>
		<path class="st2" d="M375.8,128.2v12.7c0,70.8-51.9,128.2-116,128.2h-50.7v-79h28.2c36,0,65.1-27,65.4-60.5c-0.3-33.5-29.4-60.6-65.4-60.6h-40
			V269h-71.7V0h72v0.4l69.8-0.1c60.3,4.6,107.9,60,107.9,127.8H375.8z"/>
	</g>
	<path d="M267.3,0.3l-69.8,0.1V0h61.7C262,0,264.7,0.1,267.3,0.3z"/>
</g>
<g>
	<g>
		<path class="st2" d="M391.5,128.2v12.7c0,70.8,51.9,128.2,116,128.2h50.7v-79H530c-36,0-65.1-27-65.4-60.5c0.3-33.5,29.4-60.6,65.4-60.6h40
			V269h71.8V0l-72,0v0.4l-69.8-0.1C439.6,4.9,392,60.3,392,128.2H391.5z"/>
	</g>
	<path d="M499.9,0.3l69.8,0.1V0L508,0C505.3,0,502.6,0.1,499.9,0.3z"/>
</g>
</svg>
